<svg width="69px" height="50px" viewBox="0 0 381 275" version="1.1"
    xmlns="http://www.w3.org/2000/svg"
    xmlns:xlink="http://www.w3.org/1999/xlink">
    <g id="LOGO" stroke="none" stroke-width="1" fill="none" fill-rule="evenodd">
        <g id="Group" transform="translate(0.220793, 0.193097)" fill="rgb(42, 106, 211)">
            <path d="M258.537051,154.089422 C262.826798,143.636423 266.271008,134.178994 268.86968,125.717137 C272.76769,113.02435 275.253357,100.929664 275.5404,97.8799633 C275.91344,93.9165911 278.291102,79.4213116 278.457667,75.8207809 C278.839494,67.5670745 281.650691,49.0288193 284.483089,42.8668162 C289.628088,31.6736514 294.242618,33.2437308 299.123275,32.8144938 C304.003932,32.3852569 307.280465,37.5696003 305.771168,47.6707614 C304.261871,57.7719225 300.061627,67.2649925 299.305618,70.9377066 C298.863269,73.0866501 310.972995,57.9698315 319.117139,41.6675318 C321.664092,36.5692448 323.437796,32.4078141 324.720024,29.0301435 C327.537854,21.6073634 327.982125,17.9697221 329.043371,16.492373 C331.013391,13.7499288 338.718903,7.83898164 344.887942,10.5751362 C350.373726,13.0082463 354.026656,21.6528375 354.228392,25.0486747 C354.69665,32.9309086 352.679851,45.7365178 348.21679,51.466648 C343.753728,57.1967782 338.291748,64.8148879 328.898027,73.6593734 C319.504306,82.5038589 307.18066,100.167891 304.575346,104.369198 C302.482762,107.743681 296.692401,118.858786 292.499458,136.126346 C289.704163,147.638053 287.171914,157.568014 284.902712,165.91623 L275.854227,198.869198 L258.537051,154.089422 Z" id="Path" transform="translate(306.415825, 104.369198) rotate(17.000000) translate(-306.415825, -104.369198) "></path>
            <path d="M25.5370514,154.089422 C29.8267979,143.636423 33.2710076,134.178994 35.8696804,125.717137 C39.7676896,113.02435 42.2533574,100.929664 42.5404003,97.8799633 C42.9134395,93.9165911 45.2911017,79.4213116 45.457667,75.8207809 C45.8394943,67.5670745 48.6506906,49.0288193 51.4830889,42.8668162 C56.6280879,31.6736514 61.2426179,33.2437308 66.1232748,32.8144938 C71.0039317,32.3852569 74.2804647,37.5696003 72.7711681,47.6707614 C71.2618715,57.7719225 67.0616275,67.2649925 66.3056183,70.9377066 C65.8632694,73.0866501 77.972995,57.9698315 86.1171395,41.6675318 C88.6640922,36.5692448 90.4377958,32.4078141 91.7200245,29.0301435 C94.5378544,21.6073634 94.9821251,17.9697221 96.043371,16.492373 C98.0133913,13.7499288 105.718903,7.83898164 111.887942,10.5751362 C117.373726,13.0082463 121.026656,21.6528375 121.228392,25.0486747 C121.69665,32.9309086 119.679851,45.7365178 115.21679,51.466648 C110.753728,57.1967782 105.291748,64.8148879 95.898027,73.6593734 C86.5043061,82.5038589 74.1806596,100.167891 71.5753457,104.369198 C69.4827618,107.743681 63.692401,118.858786 59.499458,136.126346 C56.7041627,147.638053 54.1719141,157.568014 51.9027122,165.91623 L42.8542272,198.869198 L25.5370514,154.089422 Z" id="Path-Copy-2" transform="translate(73.415825, 104.369198) scale(-1, 1) rotate(17.000000) translate(-73.415825, -104.369198) "></path>
            <path d="M38.7318295,274.806903 L339.635681,274.806903 C346.263098,274.806904 351.635681,269.43432 351.635681,262.806903 C351.635681,261.843267 351.519609,260.883138 351.289971,259.947264 C348.145328,247.131456 345.275353,237.092376 342.680047,229.830024 C335.943388,210.979071 318.049063,160.759393 286.676909,123.124505 C255.765185,86.0419608 206.44479,79.8069029 189.779207,79.8069029 C171.966069,79.8069029 120.573733,86.0419608 85.5492413,123.124505 C54.6485919,155.840888 39.0651065,214.184555 33.875968,229.830024 C31.4169132,237.244177 29.0892676,247.583029 26.8930312,260.846579 C25.8103724,267.384969 30.2331193,273.563046 36.7715091,274.645701 C37.4194371,274.752988 38.0750791,274.806903 38.7318295,274.806903 Z" id="Path-2"></path>
        </g>
    </g>
</svg>